<svg width="900" height="1569" viewBox="0 0 900 1569" xmlns="http://www.w3.org/2000/svg" role="img" aria-labelledby="t">
<!-- Drawn by the itxcrusher profile theme engine. Source, and the terms for reuse: https://github.com/itxcrusher/itxcrusher -->
<title id="t">what is public and the stack</title>
<desc>24 original public repositories. Most of the work is not here: over the last 12 months, 6,616 of 8,324 contributions were in private repositories (client delivery, product builds, and security research).</desc>
<style>@keyframes k1{0%,100%{transform:translateX(0)}50%{transform:translateX(14.667px)}}.a2{animation:k1 7s ease-in-out infinite}@keyframes k3{from{transform:translate(0,0)}to{transform:translate(0px,1569px)}}.a4{animation:k3 11.667s linear 0s infinite}@keyframes k6{0%,100%{transform:translateX(0)}50%{transform:translateX(19.333px)}}.a7{animation:k6 5.6s ease-in-out infinite}@keyframes k8{from{transform:translate(0,0)}to{transform:translate(0px,1569px)}}.a9{animation:k8 9.333s linear 0s infinite}@keyframes k11{0%,100%{transform:translateX(0)}50%{transform:translateX(24px)}}.a12{animation:k11 4.2s ease-in-out infinite}@keyframes k13{from{transform:translate(0,0)}to{transform:translate(0px,1569px)}}.a14{animation:k13 7s linear 0s infinite}</style>
<defs><clipPath id="c5"><rect x="0" y="0" width="900" height="1569" rx="0"/></clipPath><clipPath id="c10"><rect x="0" y="0" width="900" height="1569" rx="0"/></clipPath><clipPath id="c15"><rect x="0" y="0" width="900" height="1569" rx="0"/></clipPath></defs>
<rect x="0" y="0" width="900" height="1569" fill="#040c1c"/>
<g opacity="0.14">
<g clip-path="url(#c5)" ><g class="a4"><g class="a2" fill="#ffffff" fill-opacity="0.51"><circle cx="753.094" cy="799.715" r="2"/><circle cx="753.094" cy="-769.285" r="2"/><circle cx="625.707" cy="68.099" r="2"/><circle cx="625.707" cy="-1500.901" r="2"/><circle cx="892.831" cy="114.307" r="2"/><circle cx="892.831" cy="-1454.693" r="2"/><circle cx="135.328" cy="108.987" r="2"/><circle cx="135.328" cy="-1460.013" r="2"/><circle cx="879.087" cy="442.977" r="2"/><circle cx="879.087" cy="-1126.023" r="2"/><circle cx="76.674" cy="1567.648" r="2"/><circle cx="76.674" cy="-1.352" r="2"/><circle cx="471.811" cy="27.519" r="2"/><circle cx="471.811" cy="-1541.481" r="2"/><circle cx="651.907" cy="755.494" r="2"/><circle cx="651.907" cy="-813.506" r="2"/><circle cx="93.296" cy="1474.669" r="2"/><circle cx="93.296" cy="-94.331" r="2"/><circle cx="349.305" cy="1035.639" r="2"/><circle cx="349.305" cy="-533.361" r="2"/><circle cx="774.24" cy="1327.801" r="2"/><circle cx="774.24" cy="-241.199" r="2"/><circle cx="588.167" cy="655.415" r="2"/><circle cx="588.167" cy="-913.585" r="2"/><circle cx="782.147" cy="912.782" r="2"/><circle cx="782.147" cy="-656.218" r="2"/><circle cx="854.534" cy="551.364" r="2"/><circle cx="854.534" cy="-1017.636" r="2"/><circle cx="255.469" cy="237.293" r="2"/><circle cx="255.469" cy="-1331.707" r="2"/><circle cx="379.673" cy="754.106" r="2"/><circle cx="379.673" cy="-814.894" r="2"/><circle cx="519.851" cy="518.06" r="2"/><circle cx="519.851" cy="-1050.94" r="2"/><circle cx="52.498" cy="152.659" r="2"/><circle cx="52.498" cy="-1416.341" r="2"/><circle cx="99.6" cy="54.997" r="2"/><circle cx="99.6" cy="-1514.003" r="2"/></g></g></g>
<g clip-path="url(#c10)" ><g class="a9"><g class="a7" fill="#ffffff" fill-opacity="0.705"><circle cx="14.283" cy="73.617" r="2.8"/><circle cx="14.283" cy="-1495.383" r="2.8"/><circle cx="669.918" cy="377.669" r="2.8"/><circle cx="669.918" cy="-1191.331" r="2.8"/><circle cx="795.983" cy="1106.565" r="2.8"/><circle cx="795.983" cy="-462.435" r="2.8"/><circle cx="640.675" cy="498.413" r="2.8"/><circle cx="640.675" cy="-1070.587" r="2.8"/><circle cx="57.625" cy="1276.904" r="2.8"/><circle cx="57.625" cy="-292.096" r="2.8"/><circle cx="759.958" cy="761.414" r="2.8"/><circle cx="759.958" cy="-807.586" r="2.8"/><circle cx="296.615" cy="512.689" r="2.8"/><circle cx="296.615" cy="-1056.311" r="2.8"/><circle cx="848.039" cy="1102.543" r="2.8"/><circle cx="848.039" cy="-466.457" r="2.8"/><circle cx="70.566" cy="1542.808" r="2.8"/><circle cx="70.566" cy="-26.192" r="2.8"/><circle cx="559.515" cy="1198.178" r="2.8"/><circle cx="559.515" cy="-370.822" r="2.8"/><circle cx="3.204" cy="1447.939" r="2.8"/><circle cx="3.204" cy="-121.061" r="2.8"/><circle cx="10.305" cy="895.854" r="2.8"/><circle cx="10.305" cy="-673.146" r="2.8"/><circle cx="35.477" cy="1412.595" r="2.8"/><circle cx="35.477" cy="-156.405" r="2.8"/><circle cx="840.583" cy="752.655" r="2.8"/><circle cx="840.583" cy="-816.345" r="2.8"/><circle cx="582.942" cy="695.923" r="2.8"/><circle cx="582.942" cy="-873.077" r="2.8"/><circle cx="42.269" cy="1474.445" r="2.8"/><circle cx="42.269" cy="-94.555" r="2.8"/><circle cx="269.994" cy="902.023" r="2.8"/><circle cx="269.994" cy="-666.977" r="2.8"/><circle cx="681.815" cy="190.382" r="2.8"/><circle cx="681.815" cy="-1378.618" r="2.8"/><circle cx="597.807" cy="203.042" r="2.8"/><circle cx="597.807" cy="-1365.958" r="2.8"/><circle cx="38.796" cy="561.548" r="2.8"/><circle cx="38.796" cy="-1007.452" r="2.8"/><circle cx="665.876" cy="425.491" r="2.8"/><circle cx="665.876" cy="-1143.509" r="2.8"/><circle cx="171.45" cy="477.176" r="2.8"/><circle cx="171.45" cy="-1091.824" r="2.8"/><circle cx="83.5" cy="826.579" r="2.8"/><circle cx="83.5" cy="-742.421" r="2.8"/><circle cx="449.079" cy="1553.298" r="2.8"/><circle cx="449.079" cy="-15.702" r="2.8"/></g></g></g>
<g clip-path="url(#c15)" ><g class="a14"><g class="a12" fill="#ffffff" fill-opacity="0.9"><circle cx="788.53" cy="464.67" r="3.6"/><circle cx="788.53" cy="-1104.33" r="3.6"/><circle cx="629.583" cy="659.978" r="3.6"/><circle cx="629.583" cy="-909.022" r="3.6"/><circle cx="889.721" cy="499.058" r="3.6"/><circle cx="889.721" cy="-1069.942" r="3.6"/><circle cx="307.928" cy="210.796" r="3.6"/><circle cx="307.928" cy="-1358.204" r="3.6"/><circle cx="733.886" cy="997.793" r="3.6"/><circle cx="733.886" cy="-571.207" r="3.6"/><circle cx="481.102" cy="1169.884" r="3.6"/><circle cx="481.102" cy="-399.116" r="3.6"/><circle cx="199.644" cy="740.493" r="3.6"/><circle cx="199.644" cy="-828.507" r="3.6"/><circle cx="469.918" cy="1029.801" r="3.6"/><circle cx="469.918" cy="-539.199" r="3.6"/><circle cx="352.264" cy="264.13" r="3.6"/><circle cx="352.264" cy="-1304.87" r="3.6"/><circle cx="67.549" cy="415.774" r="3.6"/><circle cx="67.549" cy="-1153.226" r="3.6"/><circle cx="884.747" cy="193.864" r="3.6"/><circle cx="884.747" cy="-1375.136" r="3.6"/><circle cx="74.635" cy="1348.466" r="3.6"/><circle cx="74.635" cy="-220.534" r="3.6"/><circle cx="116.923" cy="1224.324" r="3.6"/><circle cx="116.923" cy="-344.676" r="3.6"/><circle cx="20.088" cy="253.871" r="3.6"/><circle cx="20.088" cy="-1315.129" r="3.6"/><circle cx="74.359" cy="990.064" r="3.6"/><circle cx="74.359" cy="-578.936" r="3.6"/><circle cx="646.267" cy="676.058" r="3.6"/><circle cx="646.267" cy="-892.942" r="3.6"/><circle cx="539.376" cy="563.4" r="3.6"/><circle cx="539.376" cy="-1005.6" r="3.6"/><circle cx="654.889" cy="743.163" r="3.6"/><circle cx="654.889" cy="-825.837" r="3.6"/><circle cx="354.686" cy="1429.256" r="3.6"/><circle cx="354.686" cy="-139.744" r="3.6"/><circle cx="71.735" cy="1491.679" r="3.6"/><circle cx="71.735" cy="-77.321" r="3.6"/><circle cx="540.518" cy="1481.56" r="3.6"/><circle cx="540.518" cy="-87.44" r="3.6"/><circle cx="207.03" cy="135.556" r="3.6"/><circle cx="207.03" cy="-1433.444" r="3.6"/><circle cx="876.457" cy="491.448" r="3.6"/><circle cx="876.457" cy="-1077.552" r="3.6"/><circle cx="0.881" cy="1545.923" r="3.6"/><circle cx="0.881" cy="-23.077" r="3.6"/><circle cx="407.447" cy="1190.905" r="3.6"/><circle cx="407.447" cy="-378.095" r="3.6"/><circle cx="851.512" cy="702.249" r="3.6"/><circle cx="851.512" cy="-866.751" r="3.6"/><circle cx="56.077" cy="480.405" r="3.6"/><circle cx="56.077" cy="-1088.595" r="3.6"/><circle cx="25.99" cy="740.133" r="3.6"/><circle cx="25.99" cy="-828.867" r="3.6"/><circle cx="272.034" cy="1232.299" r="3.6"/><circle cx="272.034" cy="-336.701" r="3.6"/><circle cx="732.893" cy="98.952" r="3.6"/><circle cx="732.893" cy="-1470.048" r="3.6"/></g></g></g>
</g>
<line x1="284.495" y1="57.88" x2="835.1" y2="57.88" stroke="#9fd3ff" stroke-opacity="0.5" stroke-width="1.5"/>
<g transform="translate(846.5,57.88) scale(0.432)">
<line x1="10" y1="0" x2="-10" y2="0" stroke="#9fd3ff" stroke-opacity="0.95" stroke-width="2"/>
<line x1="5" y1="8.66" x2="-5" y2="-8.66" stroke="#9fd3ff" stroke-opacity="0.95" stroke-width="2"/>
<line x1="-5" y1="8.66" x2="5" y2="-8.66" stroke="#9fd3ff" stroke-opacity="0.95" stroke-width="2"/>
</g>
<rect x="44" y="146.96" width="812" height="128.28" rx="10.45" fill="#08152b" fill-opacity="1"/>
<rect x="44.75" y="147.71" width="810.5" height="126.78" rx="9.7" fill="none" stroke="#9fd3ff" stroke-opacity="0.45" stroke-width="1.4"/>
<rect x="44" y="146.96" width="3" height="128.28" rx="0" fill="#9fd3ff" fill-opacity="0.9"/>
<rect x="44" y="283.22" width="812" height="151.48" rx="10.45" fill="#08152b" fill-opacity="1"/>
<rect x="44.75" y="283.97" width="810.5" height="149.98" rx="9.7" fill="none" stroke="#9fd3ff" stroke-opacity="0.45" stroke-width="1.4"/>
<rect x="44" y="283.22" width="3" height="151.48" rx="0" fill="#9fd3ff" fill-opacity="0.9"/>
<rect x="44" y="442.68" width="812" height="151.48" rx="10.45" fill="#08152b" fill-opacity="1"/>
<rect x="44.75" y="443.43" width="810.5" height="149.98" rx="9.7" fill="none" stroke="#9fd3ff" stroke-opacity="0.45" stroke-width="1.4"/>
<rect x="44" y="442.68" width="3" height="151.48" rx="0" fill="#9fd3ff" fill-opacity="0.9"/>
<rect x="44" y="602.14" width="812" height="128.28" rx="10.45" fill="#08152b" fill-opacity="1"/>
<rect x="44.75" y="602.89" width="810.5" height="126.78" rx="9.7" fill="none" stroke="#9fd3ff" stroke-opacity="0.45" stroke-width="1.4"/>
<rect x="44" y="602.14" width="3" height="128.28" rx="0" fill="#9fd3ff" fill-opacity="0.9"/>
<rect x="44" y="738.4" width="812" height="128.28" rx="10.45" fill="#08152b" fill-opacity="1"/>
<rect x="44.75" y="739.15" width="810.5" height="126.78" rx="9.7" fill="none" stroke="#9fd3ff" stroke-opacity="0.45" stroke-width="1.4"/>
<rect x="44" y="738.4" width="3" height="128.28" rx="0" fill="#9fd3ff" fill-opacity="0.9"/>
<rect x="44" y="874.66" width="812" height="128.28" rx="10.45" fill="#08152b" fill-opacity="1"/>
<rect x="44.75" y="875.41" width="810.5" height="126.78" rx="9.7" fill="none" stroke="#9fd3ff" stroke-opacity="0.45" stroke-width="1.4"/>
<rect x="44" y="874.66" width="3" height="128.28" rx="0" fill="#9fd3ff" fill-opacity="0.9"/>
<line x1="204.706" y1="1141.25" x2="835.1" y2="1141.25" stroke="#9fd3ff" stroke-opacity="0.5" stroke-width="1.5"/>
<g transform="translate(846.5,1141.25) scale(0.432)">
<line x1="10" y1="0" x2="-10" y2="0" stroke="#9fd3ff" stroke-opacity="0.95" stroke-width="2"/>
<line x1="5" y1="8.66" x2="-5" y2="-8.66" stroke="#9fd3ff" stroke-opacity="0.95" stroke-width="2"/>
<line x1="-5" y1="8.66" x2="5" y2="-8.66" stroke="#9fd3ff" stroke-opacity="0.95" stroke-width="2"/>
</g>
<rect x="44" y="1232.23" width="62.319" height="32" rx="16" fill="#9fd3ff" fill-opacity="1"/>
<rect x="112.019" y="1232.23" width="55.23" height="32" rx="16" fill="#0c1d39" fill-opacity="1"/>
<rect x="112.769" y="1232.98" width="53.73" height="30.5" rx="15.25" fill="none" stroke="#9fd3ff" stroke-opacity="0.5" stroke-width="1.2"/>
<rect x="172.949" y="1232.23" width="62.658" height="32" rx="16" fill="#0c1d39" fill-opacity="1"/>
<rect x="173.699" y="1232.98" width="61.158" height="30.5" rx="15.25" fill="none" stroke="#9fd3ff" stroke-opacity="0.5" stroke-width="1.2"/>
<rect x="44" y="1272.21" width="88.437" height="32" rx="16" fill="#9fd3ff" fill-opacity="1"/>
<rect x="138.137" y="1272.21" width="105.33" height="32" rx="16" fill="#0c1d39" fill-opacity="1"/>
<rect x="138.887" y="1272.96" width="103.83" height="30.5" rx="15.25" fill="none" stroke="#9fd3ff" stroke-opacity="0.5" stroke-width="1.2"/>
<rect x="249.167" y="1272.21" width="72.682" height="32" rx="16" fill="#0c1d39" fill-opacity="1"/>
<rect x="249.917" y="1272.96" width="71.182" height="30.5" rx="15.25" fill="none" stroke="#9fd3ff" stroke-opacity="0.5" stroke-width="1.2"/>
<rect x="327.549" y="1272.21" width="95.289" height="32" rx="16" fill="#0c1d39" fill-opacity="1"/>
<rect x="328.299" y="1272.96" width="93.789" height="30.5" rx="15.25" fill="none" stroke="#9fd3ff" stroke-opacity="0.5" stroke-width="1.2"/>
<rect x="428.538" y="1272.21" width="59.164" height="32" rx="16" fill="#0c1d39" fill-opacity="1"/>
<rect x="429.288" y="1272.96" width="57.664" height="30.5" rx="15.25" fill="none" stroke="#9fd3ff" stroke-opacity="0.5" stroke-width="1.2"/>
<rect x="44" y="1312.19" width="81.789" height="32" rx="16" fill="#9fd3ff" fill-opacity="1"/>
<rect x="131.489" y="1312.19" width="135.077" height="32" rx="16" fill="#0c1d39" fill-opacity="1"/>
<rect x="132.239" y="1312.94" width="133.577" height="30.5" rx="15.25" fill="none" stroke="#9fd3ff" stroke-opacity="0.5" stroke-width="1.2"/>
<rect x="272.267" y="1312.19" width="137.045" height="32" rx="16" fill="#0c1d39" fill-opacity="1"/>
<rect x="273.017" y="1312.94" width="135.545" height="30.5" rx="15.25" fill="none" stroke="#9fd3ff" stroke-opacity="0.5" stroke-width="1.2"/>
<rect x="415.011" y="1312.19" width="78.94" height="32" rx="16" fill="#0c1d39" fill-opacity="1"/>
<rect x="415.761" y="1312.94" width="77.44" height="30.5" rx="15.25" fill="none" stroke="#9fd3ff" stroke-opacity="0.5" stroke-width="1.2"/>
<rect x="499.651" y="1312.19" width="70.969" height="32" rx="16" fill="#0c1d39" fill-opacity="1"/>
<rect x="500.401" y="1312.94" width="69.469" height="30.5" rx="15.25" fill="none" stroke="#9fd3ff" stroke-opacity="0.5" stroke-width="1.2"/>
<rect x="44" y="1352.17" width="81.06" height="32" rx="16" fill="#9fd3ff" fill-opacity="1"/>
<rect x="130.76" y="1352.17" width="59.232" height="32" rx="16" fill="#0c1d39" fill-opacity="1"/>
<rect x="131.51" y="1352.92" width="57.732" height="30.5" rx="15.25" fill="none" stroke="#9fd3ff" stroke-opacity="0.5" stroke-width="1.2"/>
<rect x="195.692" y="1352.17" width="105.923" height="32" rx="16" fill="#0c1d39" fill-opacity="1"/>
<rect x="196.442" y="1352.92" width="104.423" height="30.5" rx="15.25" fill="none" stroke="#9fd3ff" stroke-opacity="0.5" stroke-width="1.2"/>
<rect x="307.315" y="1352.17" width="147.373" height="32" rx="16" fill="#0c1d39" fill-opacity="1"/>
<rect x="308.065" y="1352.92" width="145.873" height="30.5" rx="15.25" fill="none" stroke="#9fd3ff" stroke-opacity="0.5" stroke-width="1.2"/>
<rect x="44" y="1392.15" width="32.181" height="32" rx="16" fill="#9fd3ff" fill-opacity="1"/>
<rect x="81.881" y="1392.15" width="143.897" height="32" rx="16" fill="#0c1d39" fill-opacity="1"/>
<rect x="82.631" y="1392.9" width="142.397" height="30.5" rx="15.25" fill="none" stroke="#9fd3ff" stroke-opacity="0.5" stroke-width="1.2"/>
<rect x="231.478" y="1392.15" width="54.348" height="32" rx="16" fill="#0c1d39" fill-opacity="1"/>
<rect x="232.228" y="1392.9" width="52.848" height="30.5" rx="15.25" fill="none" stroke="#9fd3ff" stroke-opacity="0.5" stroke-width="1.2"/>
<rect x="291.526" y="1392.15" width="133.822" height="32" rx="16" fill="#0c1d39" fill-opacity="1"/>
<rect x="292.276" y="1392.9" width="132.322" height="30.5" rx="15.25" fill="none" stroke="#9fd3ff" stroke-opacity="0.5" stroke-width="1.2"/>
<rect x="431.048" y="1392.15" width="142.319" height="32" rx="16" fill="#0c1d39" fill-opacity="1"/>
<rect x="431.798" y="1392.9" width="140.819" height="30.5" rx="15.25" fill="none" stroke="#9fd3ff" stroke-opacity="0.5" stroke-width="1.2"/>
<rect x="44" y="1432.13" width="99.461" height="32" rx="16" fill="#9fd3ff" fill-opacity="1"/>
<rect x="149.161" y="1432.13" width="72.766" height="32" rx="16" fill="#0c1d39" fill-opacity="1"/>
<rect x="149.911" y="1432.88" width="71.266" height="30.5" rx="15.25" fill="none" stroke="#9fd3ff" stroke-opacity="0.5" stroke-width="1.2"/>
<rect x="227.628" y="1432.13" width="54.517" height="32" rx="16" fill="#0c1d39" fill-opacity="1"/>
<rect x="228.378" y="1432.88" width="53.017" height="30.5" rx="15.25" fill="none" stroke="#9fd3ff" stroke-opacity="0.5" stroke-width="1.2"/>
<rect x="287.845" y="1432.13" width="49.531" height="32" rx="16" fill="#0c1d39" fill-opacity="1"/>
<rect x="288.595" y="1432.88" width="48.031" height="30.5" rx="15.25" fill="none" stroke="#9fd3ff" stroke-opacity="0.5" stroke-width="1.2"/>
<rect x="343.076" y="1432.13" width="63.371" height="32" rx="16" fill="#0c1d39" fill-opacity="1"/>
<rect x="343.826" y="1432.88" width="61.871" height="30.5" rx="15.25" fill="none" stroke="#9fd3ff" stroke-opacity="0.5" stroke-width="1.2"/>
<text x="44" y="69.1" font-family="-apple-system, BlinkMacSystemFont, 'Segoe UI', Ubuntu, 'Helvetica Neue', Arial, sans-serif" font-size="33" font-weight="700" fill="#9fd3ff">what is public</text>
<text x="44" y="105.16" font-family="-apple-system, BlinkMacSystemFont, 'Segoe UI', Ubuntu, 'Helvetica Neue', Arial, sans-serif" font-size="16" font-weight="400" fill="#8aa3c6">24 original public repositories. Most of the work is not here: over the last 12 months, 6,616 of 8,324</text>
<text x="44" y="128.36" font-family="-apple-system, BlinkMacSystemFont, 'Segoe UI', Ubuntu, 'Helvetica Neue', Arial, sans-serif" font-size="16" font-weight="400" fill="#8aa3c6">contributions were in private repositories (client delivery, product builds, and security research).</text>
<text x="63.15" y="183.26" font-family="-apple-system, BlinkMacSystemFont, 'Segoe UI', Ubuntu, 'Helvetica Neue', Arial, sans-serif" font-size="23" font-weight="700" fill="#9fd3ff">ripple-proof</text>
<text x="63.15" y="208.14" font-family="-apple-system, BlinkMacSystemFont, 'Segoe UI', Ubuntu, 'Helvetica Neue', Arial, sans-serif" font-size="16" font-weight="400" fill="#eef6ff">Bounded PostgreSQL column-rename agent: turns DataHub lineage evidence into validated dbt repairs</text>
<text x="63.15" y="231.34" font-family="-apple-system, BlinkMacSystemFont, 'Segoe UI', Ubuntu, 'Helvetica Neue', Arial, sans-serif" font-size="16" font-weight="400" fill="#eef6ff">across repositories, refuses ambiguous or stale evidence, and stops at human-reviewed pull requests</text>
<text x="63.15" y="256.82" font-family="-apple-system, BlinkMacSystemFont, 'Segoe UI', Ubuntu, 'Helvetica Neue', Arial, sans-serif" font-size="16" font-weight="500" fill="#8aa3c6">Python, updated 2026-08-09</text>
<text x="63.15" y="319.52" font-family="-apple-system, BlinkMacSystemFont, 'Segoe UI', Ubuntu, 'Helvetica Neue', Arial, sans-serif" font-size="23" font-weight="700" fill="#9fd3ff">vision-ai-poc</text>
<text x="63.15" y="344.4" font-family="-apple-system, BlinkMacSystemFont, 'Segoe UI', Ubuntu, 'Helvetica Neue', Arial, sans-serif" font-size="16" font-weight="400" fill="#eef6ff">Real-time people detection, per-zone counting and dwell tracking with YOLOv8, ByteTrack and OpenCV.</text>
<text x="63.15" y="367.6" font-family="-apple-system, BlinkMacSystemFont, 'Segoe UI', Ubuntu, 'Helvetica Neue', Arial, sans-serif" font-size="16" font-weight="400" fill="#eef6ff">Runs as a local GUI demo or headless against RTSP cameras with server-fetched zones and privacy</text>
<text x="63.15" y="390.8" font-family="-apple-system, BlinkMacSystemFont, 'Segoe UI', Ubuntu, 'Helvetica Neue', Arial, sans-serif" font-size="16" font-weight="400" fill="#eef6ff">masking</text>
<text x="63.15" y="416.28" font-family="-apple-system, BlinkMacSystemFont, 'Segoe UI', Ubuntu, 'Helvetica Neue', Arial, sans-serif" font-size="16" font-weight="500" fill="#8aa3c6">Python, updated 2026-08-26</text>
<text x="63.15" y="478.98" font-family="-apple-system, BlinkMacSystemFont, 'Segoe UI', Ubuntu, 'Helvetica Neue', Arial, sans-serif" font-size="23" font-weight="700" fill="#9fd3ff">kind-cluster-recovery</text>
<text x="63.15" y="503.86" font-family="-apple-system, BlinkMacSystemFont, 'Segoe UI', Ubuntu, 'Helvetica Neue', Arial, sans-serif" font-size="16" font-weight="400" fill="#eef6ff">Four-node KIND cluster provisioned onto a remote host with Terraform over SSH, then debugged:</text>
<text x="63.15" y="527.06" font-family="-apple-system, BlinkMacSystemFont, 'Segoe UI', Ubuntu, 'Helvetica Neue', Arial, sans-serif" font-size="16" font-weight="400" fill="#eef6ff">CoreDNS Corefile repair, crash-loop recovery, and a least-privilege NetworkPolicy expressed in</text>
<text x="63.15" y="550.26" font-family="-apple-system, BlinkMacSystemFont, 'Segoe UI', Ubuntu, 'Helvetica Neue', Arial, sans-serif" font-size="16" font-weight="400" fill="#eef6ff">Terraform</text>
<text x="63.15" y="575.74" font-family="-apple-system, BlinkMacSystemFont, 'Segoe UI', Ubuntu, 'Helvetica Neue', Arial, sans-serif" font-size="16" font-weight="500" fill="#8aa3c6">HCL, updated 2026-08-26</text>
<text x="63.15" y="638.44" font-family="-apple-system, BlinkMacSystemFont, 'Segoe UI', Ubuntu, 'Helvetica Neue', Arial, sans-serif" font-size="23" font-weight="700" fill="#9fd3ff">k8s-gitops-platform</text>
<text x="63.15" y="663.32" font-family="-apple-system, BlinkMacSystemFont, 'Segoe UI', Ubuntu, 'Helvetica Neue', Arial, sans-serif" font-size="16" font-weight="400" fill="#eef6ff">ArgoCD app-of-apps GitOps configuration for a 17-service Kubernetes platform: parameterised Helm</text>
<text x="63.15" y="686.52" font-family="-apple-system, BlinkMacSystemFont, 'Segoe UI', Ubuntu, 'Helvetica Neue', Arial, sans-serif" font-size="16" font-weight="400" fill="#eef6ff">charts, an ELK logging stack, and cert-manager across three environments. Generalised from production</text>
<text x="63.15" y="712" font-family="-apple-system, BlinkMacSystemFont, 'Segoe UI', Ubuntu, 'Helvetica Neue', Arial, sans-serif" font-size="16" font-weight="500" fill="#8aa3c6">updated 2026-08-22</text>
<text x="63.15" y="774.7" font-family="-apple-system, BlinkMacSystemFont, 'Segoe UI', Ubuntu, 'Helvetica Neue', Arial, sans-serif" font-size="23" font-weight="700" fill="#9fd3ff">wordpress-fargate-deployment</text>
<text x="63.15" y="799.58" font-family="-apple-system, BlinkMacSystemFont, 'Segoe UI', Ubuntu, 'Helvetica Neue', Arial, sans-serif" font-size="16" font-weight="400" fill="#eef6ff">AWS CloudFormation template and helper scripts to deploy a production-ready WordPress</text>
<text x="63.15" y="822.78" font-family="-apple-system, BlinkMacSystemFont, 'Segoe UI', Ubuntu, 'Helvetica Neue', Arial, sans-serif" font-size="16" font-weight="400" fill="#eef6ff">environment on AWS Fargate with RDS, EFS, and an Application Load Balancer</text>
<text x="63.15" y="848.26" font-family="-apple-system, BlinkMacSystemFont, 'Segoe UI', Ubuntu, 'Helvetica Neue', Arial, sans-serif" font-size="16" font-weight="500" fill="#8aa3c6">Shell, updated 2025-08-08</text>
<text x="63.15" y="910.96" font-family="-apple-system, BlinkMacSystemFont, 'Segoe UI', Ubuntu, 'Helvetica Neue', Arial, sans-serif" font-size="23" font-weight="700" fill="#9fd3ff">azure-devops-demo</text>
<text x="63.15" y="935.84" font-family="-apple-system, BlinkMacSystemFont, 'Segoe UI', Ubuntu, 'Helvetica Neue', Arial, sans-serif" font-size="16" font-weight="400" fill="#eef6ff">End-to-end Terraform and GitHub Actions pipeline that deploys a containerized service to Azure, with</text>
<text x="63.15" y="959.04" font-family="-apple-system, BlinkMacSystemFont, 'Segoe UI', Ubuntu, 'Helvetica Neue', Arial, sans-serif" font-size="16" font-weight="400" fill="#eef6ff">six reusable Terraform modules</text>
<text x="63.15" y="984.52" font-family="-apple-system, BlinkMacSystemFont, 'Segoe UI', Ubuntu, 'Helvetica Neue', Arial, sans-serif" font-size="16" font-weight="500" fill="#8aa3c6">HCL, updated 2025-05-16</text>
<text x="44" y="1029.77" font-family="-apple-system, BlinkMacSystemFont, 'Segoe UI', Ubuntu, 'Helvetica Neue', Arial, sans-serif" font-size="16" font-weight="400" fill="#8aa3c6">Evidence trail for ripple-proof runs across four public sibling dbt repositories: analytics, finance, growth,</text>
<text x="44" y="1052.97" font-family="-apple-system, BlinkMacSystemFont, 'Segoe UI', Ubuntu, 'Helvetica Neue', Arial, sans-serif" font-size="16" font-weight="400" fill="#8aa3c6">operations. All open and review-only.</text>
<text x="44" y="1081.87" font-family="-apple-system, BlinkMacSystemFont, 'Segoe UI', Ubuntu, 'Helvetica Neue', Arial, sans-serif" font-size="16" font-weight="400" fill="#8aa3c6">Generated 2026-09-13 from the GitHub API.</text>
<text x="44" y="1152.47" font-family="-apple-system, BlinkMacSystemFont, 'Segoe UI', Ubuntu, 'Helvetica Neue', Arial, sans-serif" font-size="33" font-weight="700" fill="#9fd3ff">the stack</text>
<text x="44" y="1188.53" font-family="-apple-system, BlinkMacSystemFont, 'Segoe UI', Ubuntu, 'Helvetica Neue', Arial, sans-serif" font-size="16" font-weight="400" fill="#8aa3c6">Everything in the operating stack below has a public artifact in this account. Work that does not is in private</text>
<text x="44" y="1211.73" font-family="-apple-system, BlinkMacSystemFont, 'Segoe UI', Ubuntu, 'Helvetica Neue', Arial, sans-serif" font-size="16" font-weight="400" fill="#8aa3c6">repositories and is not listed here.</text>
<text x="53.12" y="1253.99" font-family="-apple-system, BlinkMacSystemFont, 'Segoe UI', Ubuntu, 'Helvetica Neue', Arial, sans-serif" font-size="16" font-weight="700" fill="#040c1c">cloud</text>
<text x="121.139" y="1253.99" font-family="-apple-system, BlinkMacSystemFont, 'Segoe UI', Ubuntu, 'Helvetica Neue', Arial, sans-serif" font-size="16" font-weight="500" fill="#eef6ff">AWS</text>
<text x="182.069" y="1253.99" font-family="-apple-system, BlinkMacSystemFont, 'Segoe UI', Ubuntu, 'Helvetica Neue', Arial, sans-serif" font-size="16" font-weight="500" fill="#eef6ff">Azure</text>
<text x="53.12" y="1293.97" font-family="-apple-system, BlinkMacSystemFont, 'Segoe UI', Ubuntu, 'Helvetica Neue', Arial, sans-serif" font-size="16" font-weight="700" fill="#040c1c">platform</text>
<text x="147.257" y="1293.97" font-family="-apple-system, BlinkMacSystemFont, 'Segoe UI', Ubuntu, 'Helvetica Neue', Arial, sans-serif" font-size="16" font-weight="500" fill="#eef6ff">Kubernetes</text>
<text x="258.287" y="1293.97" font-family="-apple-system, BlinkMacSystemFont, 'Segoe UI', Ubuntu, 'Helvetica Neue', Arial, sans-serif" font-size="16" font-weight="500" fill="#eef6ff">Docker</text>
<text x="336.669" y="1293.97" font-family="-apple-system, BlinkMacSystemFont, 'Segoe UI', Ubuntu, 'Helvetica Neue', Arial, sans-serif" font-size="16" font-weight="500" fill="#eef6ff">Terraform</text>
<text x="437.658" y="1293.97" font-family="-apple-system, BlinkMacSystemFont, 'Segoe UI', Ubuntu, 'Helvetica Neue', Arial, sans-serif" font-size="16" font-weight="500" fill="#eef6ff">Helm</text>
<text x="53.12" y="1333.95" font-family="-apple-system, BlinkMacSystemFont, 'Segoe UI', Ubuntu, 'Helvetica Neue', Arial, sans-serif" font-size="16" font-weight="700" fill="#040c1c">delivery</text>
<text x="140.609" y="1333.95" font-family="-apple-system, BlinkMacSystemFont, 'Segoe UI', Ubuntu, 'Helvetica Neue', Arial, sans-serif" font-size="16" font-weight="500" fill="#eef6ff">GitHub Actions</text>
<text x="281.387" y="1333.95" font-family="-apple-system, BlinkMacSystemFont, 'Segoe UI', Ubuntu, 'Helvetica Neue', Arial, sans-serif" font-size="16" font-weight="500" fill="#eef6ff">CI/CD pipelines</text>
<text x="424.131" y="1333.95" font-family="-apple-system, BlinkMacSystemFont, 'Segoe UI', Ubuntu, 'Helvetica Neue', Arial, sans-serif" font-size="16" font-weight="500" fill="#eef6ff">ArgoCD</text>
<text x="508.771" y="1333.95" font-family="-apple-system, BlinkMacSystemFont, 'Segoe UI', Ubuntu, 'Helvetica Neue', Arial, sans-serif" font-size="16" font-weight="500" fill="#eef6ff">GitOps</text>
<text x="53.12" y="1373.93" font-family="-apple-system, BlinkMacSystemFont, 'Segoe UI', Ubuntu, 'Helvetica Neue', Arial, sans-serif" font-size="16" font-weight="700" fill="#040c1c">systems</text>
<text x="139.88" y="1373.93" font-family="-apple-system, BlinkMacSystemFont, 'Segoe UI', Ubuntu, 'Helvetica Neue', Arial, sans-serif" font-size="16" font-weight="500" fill="#eef6ff">Linux</text>
<text x="204.812" y="1373.93" font-family="-apple-system, BlinkMacSystemFont, 'Segoe UI', Ubuntu, 'Helvetica Neue', Arial, sans-serif" font-size="16" font-weight="500" fill="#eef6ff">networking</text>
<text x="316.435" y="1373.93" font-family="-apple-system, BlinkMacSystemFont, 'Segoe UI', Ubuntu, 'Helvetica Neue', Arial, sans-serif" font-size="16" font-weight="500" fill="#eef6ff">shell automation</text>
<text x="53.12" y="1413.91" font-family="-apple-system, BlinkMacSystemFont, 'Segoe UI', Ubuntu, 'Helvetica Neue', Arial, sans-serif" font-size="16" font-weight="700" fill="#040c1c">ai</text>
<text x="91.001" y="1413.91" font-family="-apple-system, BlinkMacSystemFont, 'Segoe UI', Ubuntu, 'Helvetica Neue', Arial, sans-serif" font-size="16" font-weight="500" fill="#eef6ff">bounded agents</text>
<text x="240.598" y="1413.91" font-family="-apple-system, BlinkMacSystemFont, 'Segoe UI', Ubuntu, 'Helvetica Neue', Arial, sans-serif" font-size="16" font-weight="500" fill="#eef6ff">MCP</text>
<text x="300.646" y="1413.91" font-family="-apple-system, BlinkMacSystemFont, 'Segoe UI', Ubuntu, 'Helvetica Neue', Arial, sans-serif" font-size="16" font-weight="500" fill="#eef6ff">LLM workflows</text>
<text x="440.168" y="1413.91" font-family="-apple-system, BlinkMacSystemFont, 'Segoe UI', Ubuntu, 'Helvetica Neue', Arial, sans-serif" font-size="16" font-weight="500" fill="#eef6ff">computer vision</text>
<text x="53.12" y="1453.89" font-family="-apple-system, BlinkMacSystemFont, 'Segoe UI', Ubuntu, 'Helvetica Neue', Arial, sans-serif" font-size="16" font-weight="700" fill="#040c1c">languages</text>
<text x="158.281" y="1453.89" font-family="-apple-system, BlinkMacSystemFont, 'Segoe UI', Ubuntu, 'Helvetica Neue', Arial, sans-serif" font-size="16" font-weight="500" fill="#eef6ff">Python</text>
<text x="236.748" y="1453.89" font-family="-apple-system, BlinkMacSystemFont, 'Segoe UI', Ubuntu, 'Helvetica Neue', Arial, sans-serif" font-size="16" font-weight="500" fill="#eef6ff">Bash</text>
<text x="296.965" y="1453.89" font-family="-apple-system, BlinkMacSystemFont, 'Segoe UI', Ubuntu, 'Helvetica Neue', Arial, sans-serif" font-size="16" font-weight="500" fill="#eef6ff">HCL</text>
<text x="352.196" y="1453.89" font-family="-apple-system, BlinkMacSystemFont, 'Segoe UI', Ubuntu, 'Helvetica Neue', Arial, sans-serif" font-size="16" font-weight="500" fill="#eef6ff">YAML</text>
<text x="44" y="1494.76" font-family="-apple-system, BlinkMacSystemFont, 'Segoe UI', Ubuntu, 'Helvetica Neue', Arial, sans-serif" font-size="16" font-weight="400" fill="#8aa3c6">Upstream, open: skip_cache for get_lineage in acryldata/mcp-server-datahub, and a repair-boundary skill in</text>
<text x="44" y="1517.96" font-family="-apple-system, BlinkMacSystemFont, 'Segoe UI', Ubuntu, 'Helvetica Neue', Arial, sans-serif" font-size="16" font-weight="400" fill="#8aa3c6">datahub-project/datahub-skills.</text>
</svg>
