<svg width="900" height="240" viewBox="0 0 900 240" xmlns="http://www.w3.org/2000/svg" role="img" aria-labelledby="t">
<title id="t">Muhammad Hassaan Javed, GitHub handle itxcrusher. Mainframe theme.</title>
<style>@keyframes k2{0%,100%{transform:translateY(0)}50%{transform:translateY(6px)}}.a3{animation:k2 12s ease-in-out infinite}</style>
<defs><linearGradient id="g1" x1="0" y1="0" x2="0" y2="1"><stop offset="0" stop-color="#f4f7ec" stop-opacity="1"/><stop offset="1" stop-color="#e0ead0" stop-opacity="1"/></linearGradient><clipPath id="c4"><rect x="0" y="0" width="900" height="240" rx="0"/></clipPath><linearGradient id="g5" x1="0" y1="0" x2="1" y2="0"><stop offset="0" stop-color="#f4f7ec" stop-opacity="0.66"/><stop offset="0.55" stop-color="#f4f7ec" stop-opacity="0.561"/><stop offset="1" stop-color="#f4f7ec" stop-opacity="0"/></linearGradient><linearGradient id="g6" x1="0" y1="0" x2="0" y2="1"><stop offset="0" stop-color="#f4f7ec" stop-opacity="0"/><stop offset="1" stop-color="#f4f7ec" stop-opacity="1"/></linearGradient></defs>
<rect x="0" y="0" width="900" height="240" fill="url(#g1)"/>
<g clip-path="url(#c4)" ><g class="a3"><g transform="rotate(0 450 120)"><rect x="-100" y="-30" width="1100" height="13.5" fill="#1d2a1c" fill-opacity="0.07"/><rect x="-100" y="0" width="1100" height="13.5" fill="#1d2a1c" fill-opacity="0.07"/><rect x="-100" y="30" width="1100" height="13.5" fill="#1d2a1c" fill-opacity="0.07"/><rect x="-100" y="60" width="1100" height="13.5" fill="#1d2a1c" fill-opacity="0.07"/><rect x="-100" y="90" width="1100" height="13.5" fill="#1d2a1c" fill-opacity="0.07"/><rect x="-100" y="120" width="1100" height="13.5" fill="#1d2a1c" fill-opacity="0.07"/><rect x="-100" y="150" width="1100" height="13.5" fill="#1d2a1c" fill-opacity="0.07"/><rect x="-100" y="180" width="1100" height="13.5" fill="#1d2a1c" fill-opacity="0.07"/><rect x="-100" y="210" width="1100" height="13.5" fill="#1d2a1c" fill-opacity="0.07"/><rect x="-100" y="240" width="1100" height="13.5" fill="#1d2a1c" fill-opacity="0.07"/></g></g></g>
<g><rect x="517.737" y="34.75" width="3.65" height="15.5" rx="1" fill="#644f1f" fill-opacity="0.275"/><rect x="517.737" y="127.75" width="3.65" height="15.5" rx="1" fill="#644f1f" fill-opacity="0.306"/><rect x="517.737" y="158.75" width="3.65" height="15.5" rx="1" fill="#644f1f" fill-opacity="0.428"/><rect x="517.737" y="189.75" width="3.65" height="15.5" rx="1" fill="#644f1f" fill-opacity="0.383"/><rect x="545.112" y="65.75" width="3.65" height="15.5" rx="1" fill="#644f1f" fill-opacity="0.403"/><rect x="545.112" y="96.75" width="3.65" height="15.5" rx="1" fill="#644f1f" fill-opacity="0.424"/><rect x="545.112" y="158.75" width="3.65" height="15.5" rx="1" fill="#644f1f" fill-opacity="0.453"/><rect x="554.237" y="127.75" width="3.65" height="15.5" rx="1" fill="#644f1f" fill-opacity="0.408"/><rect x="563.362" y="96.75" width="3.65" height="15.5" rx="1" fill="#644f1f" fill-opacity="0.261"/><rect x="563.362" y="127.75" width="3.65" height="15.5" rx="1" fill="#644f1f" fill-opacity="0.295"/><rect x="563.362" y="158.75" width="3.65" height="15.5" rx="1" fill="#644f1f" fill-opacity="0.411"/><rect x="572.487" y="158.75" width="3.65" height="15.5" rx="1" fill="#644f1f" fill-opacity="0.402"/><rect x="581.612" y="127.75" width="3.65" height="15.5" rx="1" fill="#644f1f" fill-opacity="0.439"/><rect x="599.862" y="96.75" width="3.65" height="15.5" rx="1" fill="#644f1f" fill-opacity="0.283"/><rect x="608.987" y="127.75" width="3.65" height="15.5" rx="1" fill="#644f1f" fill-opacity="0.393"/><rect x="608.987" y="189.75" width="3.65" height="15.5" rx="1" fill="#644f1f" fill-opacity="0.287"/><rect x="618.112" y="127.75" width="3.65" height="15.5" rx="1" fill="#644f1f" fill-opacity="0.409"/><rect x="618.112" y="158.75" width="3.65" height="15.5" rx="1" fill="#644f1f" fill-opacity="0.295"/><rect x="627.237" y="127.75" width="3.65" height="15.5" rx="1" fill="#644f1f" fill-opacity="0.498"/><rect x="636.362" y="189.75" width="3.65" height="15.5" rx="1" fill="#644f1f" fill-opacity="0.354"/><rect x="645.487" y="127.75" width="3.65" height="15.5" rx="1" fill="#644f1f" fill-opacity="0.493"/><rect x="645.487" y="158.75" width="3.65" height="15.5" rx="1" fill="#644f1f" fill-opacity="0.426"/><rect x="654.612" y="158.75" width="3.65" height="15.5" rx="1" fill="#644f1f" fill-opacity="0.394"/><rect x="663.737" y="96.75" width="3.65" height="15.5" rx="1" fill="#644f1f" fill-opacity="0.481"/><rect x="663.737" y="158.75" width="3.65" height="15.5" rx="1" fill="#644f1f" fill-opacity="0.324"/><rect x="663.737" y="189.75" width="3.65" height="15.5" rx="1" fill="#644f1f" fill-opacity="0.44"/><rect x="672.862" y="127.75" width="3.65" height="15.5" rx="1" fill="#644f1f" fill-opacity="0.311"/><rect x="672.862" y="189.75" width="3.65" height="15.5" rx="1" fill="#644f1f" fill-opacity="0.277"/><rect x="691.112" y="65.75" width="3.65" height="15.5" rx="1" fill="#644f1f" fill-opacity="0.412"/><rect x="691.112" y="96.75" width="3.65" height="15.5" rx="1" fill="#644f1f" fill-opacity="0.345"/><rect x="691.112" y="158.75" width="3.65" height="15.5" rx="1" fill="#644f1f" fill-opacity="0.368"/><rect x="700.237" y="34.75" width="3.65" height="15.5" rx="1" fill="#644f1f" fill-opacity="0.425"/><rect x="709.362" y="96.75" width="3.65" height="15.5" rx="1" fill="#644f1f" fill-opacity="0.387"/><rect x="718.487" y="65.75" width="3.65" height="15.5" rx="1" fill="#644f1f" fill-opacity="0.41"/><rect x="718.487" y="96.75" width="3.65" height="15.5" rx="1" fill="#644f1f" fill-opacity="0.494"/><rect x="718.487" y="158.75" width="3.65" height="15.5" rx="1" fill="#644f1f" fill-opacity="0.44"/><rect x="727.612" y="34.75" width="3.65" height="15.5" rx="1" fill="#644f1f" fill-opacity="0.393"/><rect x="736.737" y="96.75" width="3.65" height="15.5" rx="1" fill="#644f1f" fill-opacity="0.473"/><rect x="736.737" y="189.75" width="3.65" height="15.5" rx="1" fill="#644f1f" fill-opacity="0.452"/><rect x="745.862" y="34.75" width="3.65" height="15.5" rx="1" fill="#644f1f" fill-opacity="0.487"/><rect x="745.862" y="65.75" width="3.65" height="15.5" rx="1" fill="#644f1f" fill-opacity="0.452"/><rect x="745.862" y="189.75" width="3.65" height="15.5" rx="1" fill="#644f1f" fill-opacity="0.388"/><rect x="754.987" y="127.75" width="3.65" height="15.5" rx="1" fill="#644f1f" fill-opacity="0.337"/><rect x="764.112" y="96.75" width="3.65" height="15.5" rx="1" fill="#644f1f" fill-opacity="0.451"/><rect x="764.112" y="127.75" width="3.65" height="15.5" rx="1" fill="#644f1f" fill-opacity="0.306"/><rect x="773.237" y="65.75" width="3.65" height="15.5" rx="1" fill="#644f1f" fill-opacity="0.302"/><rect x="773.237" y="96.75" width="3.65" height="15.5" rx="1" fill="#644f1f" fill-opacity="0.421"/><rect x="773.237" y="189.75" width="3.65" height="15.5" rx="1" fill="#644f1f" fill-opacity="0.429"/><rect x="782.362" y="127.75" width="3.65" height="15.5" rx="1" fill="#644f1f" fill-opacity="0.49"/><rect x="791.487" y="127.75" width="3.65" height="15.5" rx="1" fill="#644f1f" fill-opacity="0.258"/><rect x="791.487" y="158.75" width="3.65" height="15.5" rx="1" fill="#644f1f" fill-opacity="0.259"/><rect x="800.612" y="127.75" width="3.65" height="15.5" rx="1" fill="#644f1f" fill-opacity="0.484"/><rect x="800.612" y="189.75" width="3.65" height="15.5" rx="1" fill="#644f1f" fill-opacity="0.412"/><rect x="809.737" y="65.75" width="3.65" height="15.5" rx="1" fill="#644f1f" fill-opacity="0.262"/><rect x="809.737" y="158.75" width="3.65" height="15.5" rx="1" fill="#644f1f" fill-opacity="0.266"/><rect x="809.737" y="189.75" width="3.65" height="15.5" rx="1" fill="#644f1f" fill-opacity="0.485"/><rect x="818.862" y="65.75" width="3.65" height="15.5" rx="1" fill="#644f1f" fill-opacity="0.378"/><rect x="818.862" y="96.75" width="3.65" height="15.5" rx="1" fill="#644f1f" fill-opacity="0.467"/><rect x="846.237" y="34.75" width="3.65" height="15.5" rx="1" fill="#644f1f" fill-opacity="0.39"/><rect x="855.362" y="158.75" width="3.65" height="15.5" rx="1" fill="#644f1f" fill-opacity="0.34"/><rect x="855.362" y="189.75" width="3.65" height="15.5" rx="1" fill="#644f1f" fill-opacity="0.297"/><rect x="864.487" y="96.75" width="3.65" height="15.5" rx="1" fill="#644f1f" fill-opacity="0.471"/><rect x="873.612" y="96.75" width="3.65" height="15.5" rx="1" fill="#644f1f" fill-opacity="0.479"/><rect x="873.612" y="127.75" width="3.65" height="15.5" rx="1" fill="#644f1f" fill-opacity="0.357"/><rect x="873.612" y="158.75" width="3.65" height="15.5" rx="1" fill="#644f1f" fill-opacity="0.264"/><rect x="873.612" y="189.75" width="3.65" height="15.5" rx="1" fill="#644f1f" fill-opacity="0.431"/></g>
<polygon points="860,12 900,12 900,52" fill="#644f1f" fill-opacity="0.25"/>
<rect x="0" y="0" width="612" height="240" fill="url(#g5)"/>
<text x="44" y="126" font-family="ui-monospace, SFMono-Regular, Menlo, Consolas, monospace" font-size="50" font-weight="700" fill="#1d2a1c">Muhammad Hassaan Javed</text>
<text x="44" y="184" font-family="ui-monospace, SFMono-Regular, Menlo, Consolas, monospace" font-size="42" font-weight="700" fill="#245f2d">@itxcrusher</text>
<rect x="0" y="196" width="900" height="44" fill="url(#g6)"/>
</svg>
