<svg width="900" height="240" viewBox="0 0 900 240" xmlns="http://www.w3.org/2000/svg" role="img" aria-labelledby="t">
<!-- Drawn by the itxcrusher profile theme engine. Source, and the terms for reuse: https://github.com/itxcrusher/itxcrusher -->
<title id="t">Muhammad Hassaan Javed, GitHub handle itxcrusher. Sakura theme.</title>
<style>@keyframes k2{0%,100%{transform:translateX(0)}50%{transform:translateX(-40px)}}.a3{animation:k2 9s ease-in-out infinite}@keyframes k4{from{transform:translate(0,0)}to{transform:translate(0px,240px)}}.a5{animation:k4 16s linear 0s infinite}</style>
<defs><linearGradient id="g1" x1="0" y1="0" x2="0" y2="1"><stop offset="0" stop-color="#fff4f8" stop-opacity="1"/><stop offset="1" stop-color="#ffd2e2" stop-opacity="1"/></linearGradient><clipPath id="c6"><rect x="0" y="0" width="900" height="240" rx="0"/></clipPath><linearGradient id="g7" x1="0" y1="0" x2="1" y2="0"><stop offset="0" stop-color="#fff4f8" stop-opacity="0.66"/><stop offset="0.55" stop-color="#fff4f8" stop-opacity="0.561"/><stop offset="1" stop-color="#fff4f8" stop-opacity="0"/></linearGradient><linearGradient id="g8" x1="0" y1="0" x2="0" y2="1"><stop offset="0" stop-color="#fff4f8" stop-opacity="0"/><stop offset="1" stop-color="#fff4f8" stop-opacity="1"/></linearGradient></defs>
<rect x="0" y="0" width="900" height="240" fill="url(#g1)"/>
<rect x="0" y="0" width="14" height="240" rx="0" fill="#962a55" fill-opacity="1"/>
<g clip-path="url(#c6)" ><g class="a5"><g class="a3"><g><path d="M0,-7 C5,-7 7,-1 0,7 C-7,-1 -5,-7 0,-7 Z" transform="translate(231.3,20.813) rotate(254.865) scale(0.898)" fill="#962a55" fill-opacity="0.926"><animateTransform attributeName="transform" type="rotate" additive="sum" from="0" to="360" dur="6.921s" repeatCount="indefinite"/></path><path d="M0,-7 C5,-7 7,-1 0,7 C-7,-1 -5,-7 0,-7 Z" transform="translate(231.3,-219.187) rotate(254.865) scale(0.898)" fill="#962a55" fill-opacity="0.594"><animateTransform attributeName="transform" type="rotate" additive="sum" from="0" to="360" dur="10.725s" repeatCount="indefinite"/></path><path d="M0,-7 C5,-7 7,-1 0,7 C-7,-1 -5,-7 0,-7 Z" transform="translate(579.602,43.231) rotate(189.807) scale(0.71)" fill="#962a55" fill-opacity="0.641"><animateTransform attributeName="transform" type="rotate" additive="sum" from="0" to="360" dur="9.453s" repeatCount="indefinite"/></path><path d="M0,-7 C5,-7 7,-1 0,7 C-7,-1 -5,-7 0,-7 Z" transform="translate(579.602,-196.769) rotate(189.807) scale(0.71)" fill="#962a55" fill-opacity="0.693"><animateTransform attributeName="transform" type="rotate" additive="sum" from="0" to="360" dur="5.591s" repeatCount="indefinite"/></path><path d="M0,-7 C5,-7 7,-1 0,7 C-7,-1 -5,-7 0,-7 Z" transform="translate(622.266,48.034) rotate(311.142) scale(0.855)" fill="#962a55" fill-opacity="0.743"><animateTransform attributeName="transform" type="rotate" additive="sum" from="0" to="360" dur="7.586s" repeatCount="indefinite"/></path><path d="M0,-7 C5,-7 7,-1 0,7 C-7,-1 -5,-7 0,-7 Z" transform="translate(622.266,-191.966) rotate(311.142) scale(0.855)" fill="#962a55" fill-opacity="0.56"><animateTransform attributeName="transform" type="rotate" additive="sum" from="0" to="360" dur="5.985s" repeatCount="indefinite"/></path><path d="M0,-7 C5,-7 7,-1 0,7 C-7,-1 -5,-7 0,-7 Z" transform="translate(114.222,169.902) rotate(86.523) scale(0.657)" fill="#962a55" fill-opacity="0.764"><animateTransform attributeName="transform" type="rotate" additive="sum" from="0" to="360" dur="5.799s" repeatCount="indefinite"/></path><path d="M0,-7 C5,-7 7,-1 0,7 C-7,-1 -5,-7 0,-7 Z" transform="translate(114.222,-70.098) rotate(86.523) scale(0.657)" fill="#962a55" fill-opacity="0.774"><animateTransform attributeName="transform" type="rotate" additive="sum" from="0" to="360" dur="9.305s" repeatCount="indefinite"/></path><path d="M0,-7 C5,-7 7,-1 0,7 C-7,-1 -5,-7 0,-7 Z" transform="translate(419.028,159.119) rotate(357.538) scale(0.641)" fill="#962a55" fill-opacity="0.925"><animateTransform attributeName="transform" type="rotate" additive="sum" from="0" to="360" dur="10.212s" repeatCount="indefinite"/></path><path d="M0,-7 C5,-7 7,-1 0,7 C-7,-1 -5,-7 0,-7 Z" transform="translate(419.028,-80.881) rotate(357.538) scale(0.641)" fill="#962a55" fill-opacity="0.882"><animateTransform attributeName="transform" type="rotate" additive="sum" from="0" to="360" dur="9.607s" repeatCount="indefinite"/></path><path d="M0,-7 C5,-7 7,-1 0,7 C-7,-1 -5,-7 0,-7 Z" transform="translate(590.335,33.669) rotate(57.468) scale(1.242)" fill="#962a55" fill-opacity="0.799"><animateTransform attributeName="transform" type="rotate" additive="sum" from="0" to="360" dur="9.264s" repeatCount="indefinite"/></path><path d="M0,-7 C5,-7 7,-1 0,7 C-7,-1 -5,-7 0,-7 Z" transform="translate(590.335,-206.331) rotate(57.468) scale(1.242)" fill="#962a55" fill-opacity="0.704"><animateTransform attributeName="transform" type="rotate" additive="sum" from="0" to="360" dur="7.081s" repeatCount="indefinite"/></path><path d="M0,-7 C5,-7 7,-1 0,7 C-7,-1 -5,-7 0,-7 Z" transform="translate(82.009,232.627) rotate(114.738) scale(0.632)" fill="#962a55" fill-opacity="0.633"><animateTransform attributeName="transform" type="rotate" additive="sum" from="0" to="360" dur="7.41s" repeatCount="indefinite"/></path><path d="M0,-7 C5,-7 7,-1 0,7 C-7,-1 -5,-7 0,-7 Z" transform="translate(82.009,-7.373) rotate(114.738) scale(0.632)" fill="#962a55" fill-opacity="0.893"><animateTransform attributeName="transform" type="rotate" additive="sum" from="0" to="360" dur="10.935s" repeatCount="indefinite"/></path><path d="M0,-7 C5,-7 7,-1 0,7 C-7,-1 -5,-7 0,-7 Z" transform="translate(60.304,59.367) rotate(105.301) scale(1.186)" fill="#962a55" fill-opacity="0.918"><animateTransform attributeName="transform" type="rotate" additive="sum" from="0" to="360" dur="5.088s" repeatCount="indefinite"/></path><path d="M0,-7 C5,-7 7,-1 0,7 C-7,-1 -5,-7 0,-7 Z" transform="translate(60.304,-180.633) rotate(105.301) scale(1.186)" fill="#962a55" fill-opacity="0.59"><animateTransform attributeName="transform" type="rotate" additive="sum" from="0" to="360" dur="6.512s" repeatCount="indefinite"/></path><path d="M0,-7 C5,-7 7,-1 0,7 C-7,-1 -5,-7 0,-7 Z" transform="translate(866.982,175.048) rotate(77.06) scale(0.793)" fill="#962a55" fill-opacity="0.719"><animateTransform attributeName="transform" type="rotate" additive="sum" from="0" to="360" dur="10.487s" repeatCount="indefinite"/></path><path d="M0,-7 C5,-7 7,-1 0,7 C-7,-1 -5,-7 0,-7 Z" transform="translate(866.982,-64.952) rotate(77.06) scale(0.793)" fill="#962a55" fill-opacity="0.894"><animateTransform attributeName="transform" type="rotate" additive="sum" from="0" to="360" dur="8.569s" repeatCount="indefinite"/></path><path d="M0,-7 C5,-7 7,-1 0,7 C-7,-1 -5,-7 0,-7 Z" transform="translate(707.048,135.092) rotate(354.801) scale(0.731)" fill="#962a55" fill-opacity="0.622"><animateTransform attributeName="transform" type="rotate" additive="sum" from="0" to="360" dur="10.047s" repeatCount="indefinite"/></path><path d="M0,-7 C5,-7 7,-1 0,7 C-7,-1 -5,-7 0,-7 Z" transform="translate(707.048,-104.908) rotate(354.801) scale(0.731)" fill="#962a55" fill-opacity="0.767"><animateTransform attributeName="transform" type="rotate" additive="sum" from="0" to="360" dur="6.898s" repeatCount="indefinite"/></path><path d="M0,-7 C5,-7 7,-1 0,7 C-7,-1 -5,-7 0,-7 Z" transform="translate(662.918,190.138) rotate(271.322) scale(1.134)" fill="#962a55" fill-opacity="0.812"><animateTransform attributeName="transform" type="rotate" additive="sum" from="0" to="360" dur="7.84s" repeatCount="indefinite"/></path><path d="M0,-7 C5,-7 7,-1 0,7 C-7,-1 -5,-7 0,-7 Z" transform="translate(662.918,-49.862) rotate(271.322) scale(1.134)" fill="#962a55" fill-opacity="0.752"><animateTransform attributeName="transform" type="rotate" additive="sum" from="0" to="360" dur="5.893s" repeatCount="indefinite"/></path><path d="M0,-7 C5,-7 7,-1 0,7 C-7,-1 -5,-7 0,-7 Z" transform="translate(552.505,16.081) rotate(204.649) scale(1.016)" fill="#962a55" fill-opacity="0.871"><animateTransform attributeName="transform" type="rotate" additive="sum" from="0" to="360" dur="8.978s" repeatCount="indefinite"/></path><path d="M0,-7 C5,-7 7,-1 0,7 C-7,-1 -5,-7 0,-7 Z" transform="translate(552.505,-223.919) rotate(204.649) scale(1.016)" fill="#962a55" fill-opacity="0.774"><animateTransform attributeName="transform" type="rotate" additive="sum" from="0" to="360" dur="7.721s" repeatCount="indefinite"/></path><path d="M0,-7 C5,-7 7,-1 0,7 C-7,-1 -5,-7 0,-7 Z" transform="translate(259.471,151.925) rotate(316.812) scale(1.295)" fill="#962a55" fill-opacity="0.903"><animateTransform attributeName="transform" type="rotate" additive="sum" from="0" to="360" dur="6.302s" repeatCount="indefinite"/></path><path d="M0,-7 C5,-7 7,-1 0,7 C-7,-1 -5,-7 0,-7 Z" transform="translate(259.471,-88.075) rotate(316.812) scale(1.295)" fill="#962a55" fill-opacity="0.857"><animateTransform attributeName="transform" type="rotate" additive="sum" from="0" to="360" dur="9.279s" repeatCount="indefinite"/></path><path d="M0,-7 C5,-7 7,-1 0,7 C-7,-1 -5,-7 0,-7 Z" transform="translate(680.238,62.142) rotate(190.916) scale(1.043)" fill="#962a55" fill-opacity="0.759"><animateTransform attributeName="transform" type="rotate" additive="sum" from="0" to="360" dur="10.865s" repeatCount="indefinite"/></path><path d="M0,-7 C5,-7 7,-1 0,7 C-7,-1 -5,-7 0,-7 Z" transform="translate(680.238,-177.858) rotate(190.916) scale(1.043)" fill="#962a55" fill-opacity="0.875"><animateTransform attributeName="transform" type="rotate" additive="sum" from="0" to="360" dur="5.345s" repeatCount="indefinite"/></path><path d="M0,-7 C5,-7 7,-1 0,7 C-7,-1 -5,-7 0,-7 Z" transform="translate(135.706,214.26) rotate(356.194) scale(1.229)" fill="#962a55" fill-opacity="0.556"><animateTransform attributeName="transform" type="rotate" additive="sum" from="0" to="360" dur="9.252s" repeatCount="indefinite"/></path><path d="M0,-7 C5,-7 7,-1 0,7 C-7,-1 -5,-7 0,-7 Z" transform="translate(135.706,-25.74) rotate(356.194) scale(1.229)" fill="#962a55" fill-opacity="0.748"><animateTransform attributeName="transform" type="rotate" additive="sum" from="0" to="360" dur="9.007s" repeatCount="indefinite"/></path><path d="M0,-7 C5,-7 7,-1 0,7 C-7,-1 -5,-7 0,-7 Z" transform="translate(157.192,133.655) rotate(189.547) scale(1.129)" fill="#962a55" fill-opacity="0.679"><animateTransform attributeName="transform" type="rotate" additive="sum" from="0" to="360" dur="9.633s" repeatCount="indefinite"/></path><path d="M0,-7 C5,-7 7,-1 0,7 C-7,-1 -5,-7 0,-7 Z" transform="translate(157.192,-106.345) rotate(189.547) scale(1.129)" fill="#962a55" fill-opacity="0.733"><animateTransform attributeName="transform" type="rotate" additive="sum" from="0" to="360" dur="5.227s" repeatCount="indefinite"/></path><path d="M0,-7 C5,-7 7,-1 0,7 C-7,-1 -5,-7 0,-7 Z" transform="translate(280.083,58.042) rotate(195.069) scale(0.888)" fill="#962a55" fill-opacity="0.579"><animateTransform attributeName="transform" type="rotate" additive="sum" from="0" to="360" dur="7.443s" repeatCount="indefinite"/></path><path d="M0,-7 C5,-7 7,-1 0,7 C-7,-1 -5,-7 0,-7 Z" transform="translate(280.083,-181.958) rotate(195.069) scale(0.888)" fill="#962a55" fill-opacity="0.653"><animateTransform attributeName="transform" type="rotate" additive="sum" from="0" to="360" dur="6.07s" repeatCount="indefinite"/></path><path d="M0,-7 C5,-7 7,-1 0,7 C-7,-1 -5,-7 0,-7 Z" transform="translate(81.393,177.512) rotate(237.964) scale(0.921)" fill="#962a55" fill-opacity="0.817"><animateTransform attributeName="transform" type="rotate" additive="sum" from="0" to="360" dur="10.17s" repeatCount="indefinite"/></path><path d="M0,-7 C5,-7 7,-1 0,7 C-7,-1 -5,-7 0,-7 Z" transform="translate(81.393,-62.488) rotate(237.964) scale(0.921)" fill="#962a55" fill-opacity="0.803"><animateTransform attributeName="transform" type="rotate" additive="sum" from="0" to="360" dur="9.03s" repeatCount="indefinite"/></path><path d="M0,-7 C5,-7 7,-1 0,7 C-7,-1 -5,-7 0,-7 Z" transform="translate(750.294,64.457) rotate(202.128) scale(1.003)" fill="#962a55" fill-opacity="0.582"><animateTransform attributeName="transform" type="rotate" additive="sum" from="0" to="360" dur="10.065s" repeatCount="indefinite"/></path><path d="M0,-7 C5,-7 7,-1 0,7 C-7,-1 -5,-7 0,-7 Z" transform="translate(750.294,-175.543) rotate(202.128) scale(1.003)" fill="#962a55" fill-opacity="0.61"><animateTransform attributeName="transform" type="rotate" additive="sum" from="0" to="360" dur="8.992s" repeatCount="indefinite"/></path><path d="M0,-7 C5,-7 7,-1 0,7 C-7,-1 -5,-7 0,-7 Z" transform="translate(740.167,129.972) rotate(191.506) scale(1.246)" fill="#962a55" fill-opacity="0.566"><animateTransform attributeName="transform" type="rotate" additive="sum" from="0" to="360" dur="10.091s" repeatCount="indefinite"/></path><path d="M0,-7 C5,-7 7,-1 0,7 C-7,-1 -5,-7 0,-7 Z" transform="translate(740.167,-110.028) rotate(191.506) scale(1.246)" fill="#962a55" fill-opacity="0.585"><animateTransform attributeName="transform" type="rotate" additive="sum" from="0" to="360" dur="8.576s" repeatCount="indefinite"/></path><path d="M0,-7 C5,-7 7,-1 0,7 C-7,-1 -5,-7 0,-7 Z" transform="translate(116.206,146.663) rotate(287.429) scale(0.787)" fill="#962a55" fill-opacity="0.699"><animateTransform attributeName="transform" type="rotate" additive="sum" from="0" to="360" dur="10.743s" repeatCount="indefinite"/></path><path d="M0,-7 C5,-7 7,-1 0,7 C-7,-1 -5,-7 0,-7 Z" transform="translate(116.206,-93.337) rotate(287.429) scale(0.787)" fill="#962a55" fill-opacity="0.771"><animateTransform attributeName="transform" type="rotate" additive="sum" from="0" to="360" dur="10.494s" repeatCount="indefinite"/></path><path d="M0,-7 C5,-7 7,-1 0,7 C-7,-1 -5,-7 0,-7 Z" transform="translate(261.434,21.076) rotate(104.669) scale(1.276)" fill="#962a55" fill-opacity="0.728"><animateTransform attributeName="transform" type="rotate" additive="sum" from="0" to="360" dur="9.063s" repeatCount="indefinite"/></path><path d="M0,-7 C5,-7 7,-1 0,7 C-7,-1 -5,-7 0,-7 Z" transform="translate(261.434,-218.924) rotate(104.669) scale(1.276)" fill="#962a55" fill-opacity="0.726"><animateTransform attributeName="transform" type="rotate" additive="sum" from="0" to="360" dur="6.376s" repeatCount="indefinite"/></path><path d="M0,-7 C5,-7 7,-1 0,7 C-7,-1 -5,-7 0,-7 Z" transform="translate(426.635,152.902) rotate(69.879) scale(1.108)" fill="#962a55" fill-opacity="0.805"><animateTransform attributeName="transform" type="rotate" additive="sum" from="0" to="360" dur="8.336s" repeatCount="indefinite"/></path><path d="M0,-7 C5,-7 7,-1 0,7 C-7,-1 -5,-7 0,-7 Z" transform="translate(426.635,-87.098) rotate(69.879) scale(1.108)" fill="#962a55" fill-opacity="0.704"><animateTransform attributeName="transform" type="rotate" additive="sum" from="0" to="360" dur="10.073s" repeatCount="indefinite"/></path><path d="M0,-7 C5,-7 7,-1 0,7 C-7,-1 -5,-7 0,-7 Z" transform="translate(545.77,223.448) rotate(137.163) scale(0.687)" fill="#962a55" fill-opacity="0.586"><animateTransform attributeName="transform" type="rotate" additive="sum" from="0" to="360" dur="10.154s" repeatCount="indefinite"/></path><path d="M0,-7 C5,-7 7,-1 0,7 C-7,-1 -5,-7 0,-7 Z" transform="translate(545.77,-16.552) rotate(137.163) scale(0.687)" fill="#962a55" fill-opacity="0.858"><animateTransform attributeName="transform" type="rotate" additive="sum" from="0" to="360" dur="9.914s" repeatCount="indefinite"/></path><path d="M0,-7 C5,-7 7,-1 0,7 C-7,-1 -5,-7 0,-7 Z" transform="translate(380.676,236.896) rotate(29.475) scale(0.719)" fill="#962a55" fill-opacity="0.838"><animateTransform attributeName="transform" type="rotate" additive="sum" from="0" to="360" dur="8.079s" repeatCount="indefinite"/></path><path d="M0,-7 C5,-7 7,-1 0,7 C-7,-1 -5,-7 0,-7 Z" transform="translate(380.676,-3.104) rotate(29.475) scale(0.719)" fill="#962a55" fill-opacity="0.644"><animateTransform attributeName="transform" type="rotate" additive="sum" from="0" to="360" dur="9.5s" repeatCount="indefinite"/></path><path d="M0,-7 C5,-7 7,-1 0,7 C-7,-1 -5,-7 0,-7 Z" transform="translate(188.019,227.349) rotate(86.843) scale(1.255)" fill="#962a55" fill-opacity="0.695"><animateTransform attributeName="transform" type="rotate" additive="sum" from="0" to="360" dur="9.649s" repeatCount="indefinite"/></path><path d="M0,-7 C5,-7 7,-1 0,7 C-7,-1 -5,-7 0,-7 Z" transform="translate(188.019,-12.651) rotate(86.843) scale(1.255)" fill="#962a55" fill-opacity="0.779"><animateTransform attributeName="transform" type="rotate" additive="sum" from="0" to="360" dur="6.43s" repeatCount="indefinite"/></path><path d="M0,-7 C5,-7 7,-1 0,7 C-7,-1 -5,-7 0,-7 Z" transform="translate(342.691,160.913) rotate(347.661) scale(0.797)" fill="#962a55" fill-opacity="0.584"><animateTransform attributeName="transform" type="rotate" additive="sum" from="0" to="360" dur="7.19s" repeatCount="indefinite"/></path><path d="M0,-7 C5,-7 7,-1 0,7 C-7,-1 -5,-7 0,-7 Z" transform="translate(342.691,-79.087) rotate(347.661) scale(0.797)" fill="#962a55" fill-opacity="0.597"><animateTransform attributeName="transform" type="rotate" additive="sum" from="0" to="360" dur="10.665s" repeatCount="indefinite"/></path><path d="M0,-7 C5,-7 7,-1 0,7 C-7,-1 -5,-7 0,-7 Z" transform="translate(871.343,62.252) rotate(136.874) scale(0.816)" fill="#962a55" fill-opacity="0.645"><animateTransform attributeName="transform" type="rotate" additive="sum" from="0" to="360" dur="10.195s" repeatCount="indefinite"/></path><path d="M0,-7 C5,-7 7,-1 0,7 C-7,-1 -5,-7 0,-7 Z" transform="translate(871.343,-177.748) rotate(136.874) scale(0.816)" fill="#962a55" fill-opacity="0.741"><animateTransform attributeName="transform" type="rotate" additive="sum" from="0" to="360" dur="6.024s" repeatCount="indefinite"/></path></g></g></g></g>
<rect x="0" y="0" width="612" height="240" fill="url(#g7)"/>
<text x="44" y="126" font-family="-apple-system, BlinkMacSystemFont, 'Segoe UI', Ubuntu, 'Helvetica Neue', Arial, sans-serif" font-size="51" font-weight="700" fill="#3a1030">Muhammad Hassaan Javed</text>
<text x="44" y="184" font-family="ui-monospace, SFMono-Regular, Menlo, Consolas, monospace" font-size="42" font-weight="700" fill="#962a55">@itxcrusher</text>
<rect x="0" y="196" width="900" height="44" fill="url(#g8)"/>
</svg>
